<svg xmlns="http://www.w3.org/2000/svg" xmlns:xlink="http://www.w3.org/1999/xlink" width="270.206" height="58" viewBox="0 0 270.206 58">
  <defs>
    <clipPath id="clip-path">
      <rect id="Rectangle_3508" data-name="Rectangle 3508" width="193.439" height="35.675" fill="#fff"/>
    </clipPath>
  </defs>
  <g id="Group_4023" data-name="Group 4023" transform="translate(-645.358 -7.889)">
    <g id="Group_4020" data-name="Group 4020" transform="translate(645 8)">
      <path id="Exclusion_1" data-name="Exclusion 1" d="M29,58A29.008,29.008,0,0,1,17.712,2.279,29.008,29.008,0,0,1,40.288,55.721,28.818,28.818,0,0,1,29,58ZM16.373,25.287h3.179l-7.225,14.3H22.333l-2.1,4.117H45.813L33.025,18.5l-4.768,9.392-1.481-2.926a4.081,4.081,0,0,0,.9-7.188,5.562,5.562,0,0,0-9.825-3.54l-.867-.072H16.97a4.01,4.01,0,0,0-3.957,4.66,4.082,4.082,0,0,0,3.312,6.466Zm25.9,16.255h-18.5l3.865-7.658,2.023,1.228,2.962-2.384L35.7,36.412l2.926-2.059,3.648,7.188ZM23.417,37.424H15.831l3-5.924,1.626,1.012,2.456-1.987,2.492,3-1.986,3.9ZM36.1,33.486h0L32.953,29.73l-3.432,2.745-.9-.506L33.025,23.3l4.624,9.1L36.1,33.486ZM25.873,30.669h0l-2.636-3.142-2.89,2.312-.47-.289,2.168-4.3H24.5l2.384,4.7-1.011.722ZM25.4,23.084H16.373a1.944,1.944,0,0,1-1.914-1.914A1.9,1.9,0,0,1,15,19.833l.47-.47-.217-.614a1.8,1.8,0,0,1,1.734-2.42,1.862,1.862,0,0,1,.794.181l.867.434.542-.867a3.4,3.4,0,0,1,6.322,1.806,3.149,3.149,0,0,1-.036.4l-.109.794.758.325a1.914,1.914,0,0,1-.725,3.686Z" transform="translate(0.358 -0.111)" fill="#fff"/>
      <g id="Group_4016" data-name="Group 4016" transform="translate(77.126 13.792)">
        <g id="Group_4015" data-name="Group 4015" transform="translate(0 0)" clip-path="url(#clip-path)">
          <path id="Path_327" data-name="Path 327" d="M4.085,27.719a9.264,9.264,0,0,0,2.408-.438,1.641,1.641,0,0,0,.985-1.022,8.032,8.032,0,0,0,.255-2.407V9.225A11.693,11.693,0,0,0,4.76,9.59a1.858,1.858,0,0,0-1.186,1.186A15.648,15.648,0,0,0,2.991,14L0,14.222q.255-3.028.438-7.77l.4-.4,3.611.4H15.831l3.684-.4.4.4q.072,4.378.365,7.551l-2.991.219a19.5,19.5,0,0,0-.6-3.392,1.878,1.878,0,0,0-1.094-1.223A9.584,9.584,0,0,0,12.8,9.225q-.183,2.7-.31,7.332t-.128,8.426a3.087,3.087,0,0,0,.474,1.934,1.861,1.861,0,0,0,1.532.584,18.337,18.337,0,0,0,1.933-.109l.146.182-.328,2.444q-3.867-.146-6.274-.146-1.9,0-6.055.219Z" transform="translate(0 -2.805)" fill="#fff"/>
          <path id="Path_328" data-name="Path 328" d="M44.629,32.851a3.436,3.436,0,0,0,.383-1.933V23.659a3.1,3.1,0,0,0-.328-1.7,1.441,1.441,0,0,0-1.24-.456l-.693.036-.182-.255.219-1.824q1.933-.328,3.958-.73t2.608-.511l.328.329q-.073.328-.2,1.386t-.164,2.043l.219.146a9.629,9.629,0,0,1,2.5-2.663,4.62,4.62,0,0,1,2.608-.949,7.9,7.9,0,0,1,.839.037,2.781,2.781,0,0,1,.438.072l.146.292q-.109.621-.365,2.681t-.365,3.922L53,25.665a8.458,8.458,0,0,0-.2-2.316.8.8,0,0,0-.821-.566,2.261,2.261,0,0,0-1.24.438,5.235,5.235,0,0,0-1.24,1.2q-.037,1.022-.164,3.338t-.164,3.7a2.072,2.072,0,0,0,.31,1.313,1.4,1.4,0,0,0,1.113.365q.547,0,1.094-.036a6.669,6.669,0,0,0,.73-.073l.109.219-.4,2.408q-.512-.037-1.879-.092t-2.827-.054q-1.386,0-2.772.054t-1.787.092l.292-2.225a1.928,1.928,0,0,0,1.477-.584" transform="translate(-19.733 -8.448)" fill="#fff"/>
          <path id="Path_329" data-name="Path 329" d="M83.446,35.272a3,3,0,0,1-1.113-2.1l-.292-.109a16.991,16.991,0,0,1-2.262,1.988,3.378,3.378,0,0,1-1.751.784,4.7,4.7,0,0,1-3.575-1.514,5.3,5.3,0,0,1-1.423-3.775,3.277,3.277,0,0,1,.584-1.952,2.687,2.687,0,0,1,1.532-1.076l7.04-1.641L82.224,25a3.39,3.39,0,0,0-.839-2.444,3.034,3.034,0,0,0-2.3-.875,5.449,5.449,0,0,0-2.134.492A10.551,10.551,0,0,0,74.819,23.4l-.328-.146-.62-2.189q1.823-1.021,3.83-1.9a8.568,8.568,0,0,1,2.845-.875,6.586,6.586,0,0,1,4.541,1.368A4.615,4.615,0,0,1,86.6,23.253a31.819,31.819,0,0,1-.328,3.283q-.4,3.539-.4,4.231a1.565,1.565,0,0,0,.365,1.094,1.219,1.219,0,0,0,.948.4,2.463,2.463,0,0,0,.93-.2,4.608,4.608,0,0,0,.821-.419l.547.766a12.612,12.612,0,0,1-1.623,2.243,4.19,4.19,0,0,1-1.879,1.331,4.076,4.076,0,0,1-2.535-.711M80.674,32.08a4.935,4.935,0,0,0,1.331-.766l.109-3.465-3.9,1.094a1.1,1.1,0,0,0-.875,1.2,2.3,2.3,0,0,0,.565,1.587,1.879,1.879,0,0,0,1.477.638,3.655,3.655,0,0,0,1.295-.292" transform="translate(-33.855 -8.48)" fill="#fff"/>
          <path id="Path_330" data-name="Path 330" d="M109.821,29.557q-1.4-4.979-1.952-6.694a2.325,2.325,0,0,0-2.262-1.824l-.073-.146.255-2.043,3.429.036q1.5,0,3.009-.109t1.952-.146l.073.182-.328,2.079a4.551,4.551,0,0,0-1.459.292.685.685,0,0,0-.328.657,34.786,34.786,0,0,0,.967,4.487q.966,3.867,1.331,5.253h.365q1.786-4.924,2.517-7.095a12.939,12.939,0,0,0,.73-2.681.616.616,0,0,0-.255-.584,2.119,2.119,0,0,0-.948-.146h-1.021l-.146-.255.255-1.97,4.013.036,3.319-.036-.292,2.189a1.927,1.927,0,0,0-1.167.492,5.389,5.389,0,0,0-.839,1.66l-4.6,12.512-4.669.547q-.475-1.714-1.879-6.694" transform="translate(-48.923 -8.637)" fill="#fff"/>
          <path id="Path_331" data-name="Path 331" d="M144.326,33.74a8.383,8.383,0,0,1-2.207-6.146,9.894,9.894,0,0,1,1.131-4.742,8.638,8.638,0,0,1,3.1-3.338,8.136,8.136,0,0,1,4.377-1.222q6.128,0,6.128,6.2a7.843,7.843,0,0,1-.255,2.043l-.438.437h-9.448a6.15,6.15,0,0,0,1.258,4.067,4.279,4.279,0,0,0,3.411,1.4,10.83,10.83,0,0,0,4.341-1.094l.255.146.584,1.787a17.77,17.77,0,0,1-3.119,1.86,7.412,7.412,0,0,1-3.082.839,8.081,8.081,0,0,1-6.037-2.244m7.387-9.064a.867.867,0,0,0,.565-.182,1.106,1.106,0,0,0,.128-.657q0-2.7-2.3-2.7a2.985,2.985,0,0,0-2.316.985,4.83,4.83,0,0,0-1.076,2.846Z" transform="translate(-65.882 -8.48)" fill="#fff"/>
          <path id="Path_332" data-name="Path 332" d="M175.656,25.169a2.67,2.67,0,0,0,1.222-.529,1.577,1.577,0,0,0,.492-.875,8.471,8.471,0,0,0,.109-1.587V5.253a4.241,4.241,0,0,0-.164-1.4.89.89,0,0,0-.638-.547,5.39,5.39,0,0,0-1.568-.055l-.146-.146.219-1.933Q179.6.584,182.55,0l.255.693q-.511,1.2-.821,7.441t-.31,15.1a2.331,2.331,0,0,0,.255,1.277.951.951,0,0,0,.839.365l1.2-.073.109.219-.4,2.152-1.2-.036q-2.043-.073-2.918-.073a38.762,38.762,0,0,0-4.158.328Z" transform="translate(-81.107 0)" fill="#fff"/>
          <path id="Path_333" data-name="Path 333" d="M216.181,9.3a1.2,1.2,0,0,0-1.058-.383l-1.094.036-.182-.292.255-2.152,4.888.072q.985,0,2.7-.109t2.262-.145l-.182,2.408a4.031,4.031,0,0,0-1.824.675,1.945,1.945,0,0,0-.511,1.44l-.365,14.336a4.129,4.129,0,0,0,.274,2.006,1.231,1.231,0,0,0,1.149.511q.547,0,.93-.036a2.793,2.793,0,0,0,.492-.073l.182.219-.328,2.3q-.584,0-2.17-.055T218.552,30q-1.641,0-3.082.036t-1.952.073l.328-2.3a5.444,5.444,0,0,0,1.642-.42,1.451,1.451,0,0,0,.748-.838,5.1,5.1,0,0,0,.2-1.624V10.811a3.025,3.025,0,0,0-.255-1.514m11.162,2.5a2.957,2.957,0,0,0,.985-1.824.861.861,0,0,0-.474-.784,3.356,3.356,0,0,0-1.5-.31l-.109-.255L226.54,6.4q.51.036,2.043.109t2.48.072q1.24,0,2.5-.054t1.733-.091l.219.4-.292,2.043a7.341,7.341,0,0,0-2.1,1.313,27.055,27.055,0,0,0-2.608,2.772l-3.94,4.377,4.925,7.368a10.674,10.674,0,0,0,2.061,2.408,3.538,3.538,0,0,0,2.134.765l.219.329-.292,1.9q-.547.072-2.17.255t-2.024.182a3.389,3.389,0,0,1-2.079-.747,8.664,8.664,0,0,1-1.97-2.317L221.8,18.47l.109-.765Z" transform="translate(-98.98 -2.932)" fill="#fff"/>
          <path id="Path_334" data-name="Path 334" d="M260.469,33.74a8.384,8.384,0,0,1-2.206-6.146,9.9,9.9,0,0,1,1.131-4.742,8.639,8.639,0,0,1,3.1-3.338,8.136,8.136,0,0,1,4.377-1.222q6.129,0,6.128,6.2a7.84,7.84,0,0,1-.255,2.043l-.438.437h-9.448a6.147,6.147,0,0,0,1.258,4.067,4.278,4.278,0,0,0,3.41,1.4,10.826,10.826,0,0,0,4.341-1.094l.256.146.583,1.787a17.763,17.763,0,0,1-3.119,1.86,7.41,7.41,0,0,1-3.082.839,8.082,8.082,0,0,1-6.037-2.244m7.387-9.064a.868.868,0,0,0,.565-.182,1.11,1.11,0,0,0,.128-.657q0-2.7-2.3-2.7a2.987,2.987,0,0,0-2.317.985,4.826,4.826,0,0,0-1.076,2.846Z" transform="translate(-119.722 -8.48)" fill="#fff"/>
          <path id="Path_335" data-name="Path 335" d="M295.148,33.74a8.383,8.383,0,0,1-2.206-6.146,9.9,9.9,0,0,1,1.131-4.742,8.635,8.635,0,0,1,3.1-3.338,8.135,8.135,0,0,1,4.377-1.222q6.127,0,6.128,6.2a7.816,7.816,0,0,1-.256,2.043l-.437.437h-9.448A6.153,6.153,0,0,0,298.8,31.04a4.281,4.281,0,0,0,3.411,1.4,10.828,10.828,0,0,0,4.34-1.094l.256.146.584,1.787a17.774,17.774,0,0,1-3.119,1.86,7.412,7.412,0,0,1-3.082.839,8.082,8.082,0,0,1-6.037-2.244m7.387-9.064a.867.867,0,0,0,.565-.182,1.106,1.106,0,0,0,.128-.657q0-2.7-2.3-2.7a2.986,2.986,0,0,0-2.317.985,4.826,4.826,0,0,0-1.076,2.846Z" transform="translate(-135.798 -8.48)" fill="#fff"/>
          <path id="Path_336" data-name="Path 336" d="M327.965,41.9a1.732,1.732,0,0,0,1.331-.511,3.623,3.623,0,0,0,.347-1.787q.182-3.466.182-5.581V23.7a2.824,2.824,0,0,0-.382-1.714,1.73,1.73,0,0,0-1.4-.475h-.474l-.146-.182.182-1.9q2.042-.291,4.049-.693t2.59-.511l.328.365c-.024.145-.085.456-.182.93s-.17.931-.219,1.368l.146.182q2.99-2.663,3.684-2.663a7.225,7.225,0,0,1,3.794.985,6.553,6.553,0,0,1,2.535,2.808,9.427,9.427,0,0,1,.894,4.2,9.76,9.76,0,0,1-1.241,4.961,8.614,8.614,0,0,1-3.428,3.337,10.322,10.322,0,0,1-5,1.186q-.474,0-.948-.036a6.543,6.543,0,0,1-.657-.073l.036,3.393a5.524,5.524,0,0,0,.238,2.006q.237.51,1.076.511c.34,0,.638-.013.894-.036s.455-.036.6-.036l.072.146-.4,2.225q-.8,0-1.422-.036l-2.955-.037q-1.277,0-2.644.091t-1.769.128ZM339.6,31.574a6.342,6.342,0,0,0,.985-3.794,7.883,7.883,0,0,0-1-4.25,3.024,3.024,0,0,0-2.645-1.587,3.288,3.288,0,0,0-1.24.31,6.219,6.219,0,0,0-1.386.82q-.22,4.269-.219,9.3a10.049,10.049,0,0,0,1.241.365,6.432,6.432,0,0,0,1.5.182,3.232,3.232,0,0,0,2.772-1.35" transform="translate(-151.78 -8.448)" fill="#fff"/>
        </g>
      </g>
    </g>
  </g>
</svg>
