<svg xmlns="http://www.w3.org/2000/svg" xmlns:xlink="http://www.w3.org/1999/xlink" width="149.85" height="32" viewBox="0 0 149.85 32">
  <defs>
    <clipPath id="clip-path">
      <rect id="Rectangle_3508" data-name="Rectangle 3508" width="107.134" height="19.758" fill="#fff"/>
    </clipPath>
  </defs>
  <g id="Group_4023" data-name="Group 4023" transform="translate(-645 -8)">
    <g id="Group_4020" data-name="Group 4020" transform="translate(-14.128 -2.428)">
      <path id="Exclusion_1" data-name="Exclusion 1" d="M16,32A16,16,0,0,1,9.772,1.257,16,16,0,0,1,22.228,30.743,15.9,15.9,0,0,1,16,32ZM9.033,13.951h1.754L6.8,21.844h5.521l-1.156,2.272h14.11L18.221,10.2,15.59,15.386l-.817-1.614a2.252,2.252,0,0,0,.5-3.966A3.069,3.069,0,0,0,9.85,7.853l-.478-.04H9.363A2.212,2.212,0,0,0,7.18,10.384a2.252,2.252,0,0,0,1.827,3.567Zm14.29,8.968h-10.2l2.132-4.225,1.116.678L18,18.057,19.7,20.09l1.614-1.136,2.013,3.966Zm-10.4-2.272H8.734l1.654-3.268.9.558,1.355-1.1L14.016,18.5l-1.1,2.152Zm7-2.172h0L18.181,16.4l-1.893,1.515-.5-.279,2.431-4.783,2.551,5.022-.857.6Zm-5.64-1.554h0L12.82,15.187l-1.595,1.275-.259-.159,1.2-2.372h1.355l1.315,2.591-.558.4Zm-.261-4.185H9.033a1.073,1.073,0,0,1-1.056-1.056,1.05,1.05,0,0,1,.3-.737l.259-.259-.119-.339a.995.995,0,0,1,.957-1.335,1.027,1.027,0,0,1,.438.1l.478.239.3-.478a1.874,1.874,0,0,1,3.488,1,1.737,1.737,0,0,1-.02.22l-.06.438.418.179a1.056,1.056,0,0,1-.4,2.033Z" transform="translate(659.128 10.428)" fill="#fff"/>
      <g id="Group_4016" data-name="Group 4016" transform="translate(701.843 18.067)">
        <g id="Group_4015" data-name="Group 4015" transform="translate(0 0)" clip-path="url(#clip-path)">
          <path id="Path_327" data-name="Path 327" d="M2.263,18.052A5.131,5.131,0,0,0,3.6,17.809a.909.909,0,0,0,.545-.566,4.448,4.448,0,0,0,.141-1.333v-8.1a6.476,6.476,0,0,0-1.647.2,1.029,1.029,0,0,0-.657.657,8.666,8.666,0,0,0-.323,1.788L0,10.577Q.141,8.9.242,6.273l.222-.222,2,.222h6.3l2.04-.222.222.222q.04,2.425.2,4.182l-1.657.121A10.8,10.8,0,0,0,9.243,8.7a1.04,1.04,0,0,0-.606-.677,5.308,5.308,0,0,0-1.546-.212q-.1,1.5-.172,4.061t-.071,4.667a1.709,1.709,0,0,0,.263,1.071,1.031,1.031,0,0,0,.849.323,10.156,10.156,0,0,0,1.071-.061l.081.1L8.93,19.324q-2.142-.081-3.475-.081-1.051,0-3.354.121Z" transform="translate(0 -4.253)" fill="#fff"/>
          <path id="Path_328" data-name="Path 328" d="M43.709,26.325a1.9,1.9,0,0,0,.212-1.071v-4.02a1.717,1.717,0,0,0-.182-.939.8.8,0,0,0-.687-.253l-.384.02-.1-.141.121-1.01q1.07-.182,2.192-.4t1.444-.283l.182.182q-.041.182-.111.768T46.306,20.3l.121.081a5.333,5.333,0,0,1,1.384-1.475,2.559,2.559,0,0,1,1.444-.526,4.372,4.372,0,0,1,.465.02,1.54,1.54,0,0,1,.242.04l.081.162q-.061.344-.2,1.485t-.2,2.172l-1.293.081a4.684,4.684,0,0,0-.111-1.283.44.44,0,0,0-.455-.313,1.252,1.252,0,0,0-.687.243,2.9,2.9,0,0,0-.687.667q-.02.566-.091,1.849t-.091,2.051a1.147,1.147,0,0,0,.172.727.778.778,0,0,0,.616.2q.3,0,.606-.02a3.694,3.694,0,0,0,.4-.04l.061.121-.222,1.333q-.283-.021-1.04-.051t-1.566-.03q-.768,0-1.535.03t-.99.051l.162-1.232a1.068,1.068,0,0,0,.818-.323" transform="translate(-29.921 -12.809)" fill="#fff"/>
          <path id="Path_329" data-name="Path 329" d="M78.8,27.7a1.66,1.66,0,0,1-.616-1.162l-.162-.061a9.41,9.41,0,0,1-1.253,1.1,1.871,1.871,0,0,1-.97.434,2.6,2.6,0,0,1-1.98-.838,2.934,2.934,0,0,1-.788-2.091A1.815,1.815,0,0,1,73.355,24a1.488,1.488,0,0,1,.849-.6l3.9-.909.02-.485a1.878,1.878,0,0,0-.465-1.354,1.68,1.68,0,0,0-1.273-.485,3.018,3.018,0,0,0-1.182.273,5.843,5.843,0,0,0-1.182.677l-.182-.081L73.5,19.827q1.01-.566,2.121-1.051a4.745,4.745,0,0,1,1.576-.485,3.648,3.648,0,0,1,2.515.758,2.556,2.556,0,0,1,.838,1.99,17.624,17.624,0,0,1-.182,1.818q-.223,1.96-.222,2.344a.867.867,0,0,0,.2.606.675.675,0,0,0,.525.222,1.364,1.364,0,0,0,.515-.111,2.552,2.552,0,0,0,.455-.232l.3.424a6.985,6.985,0,0,1-.9,1.242,2.32,2.32,0,0,1-1.04.737,2.257,2.257,0,0,1-1.4-.394m-1.535-1.768A2.733,2.733,0,0,0,78,25.5l.061-1.919-2.162.606a.609.609,0,0,0-.485.667,1.274,1.274,0,0,0,.313.879,1.041,1.041,0,0,0,.818.354,2.024,2.024,0,0,0,.717-.162" transform="translate(-51.334 -12.857)" fill="#fff"/>
          <path id="Path_330" data-name="Path 330" d="M107.909,24.683q-.778-2.758-1.081-3.707a1.288,1.288,0,0,0-1.253-1.01l-.04-.081.141-1.131,1.9.02q.828,0,1.667-.061t1.081-.081l.04.1-.182,1.152a2.52,2.52,0,0,0-.808.162.38.38,0,0,0-.182.364,19.265,19.265,0,0,0,.535,2.485q.535,2.142.737,2.909h.2q.989-2.727,1.394-3.929a7.166,7.166,0,0,0,.4-1.485.341.341,0,0,0-.141-.323,1.174,1.174,0,0,0-.525-.081h-.566l-.081-.141.141-1.091,2.222.02,1.838-.02-.162,1.212a1.067,1.067,0,0,0-.646.273,2.985,2.985,0,0,0-.465.919l-2.546,6.93-2.586.3q-.263-.949-1.04-3.707" transform="translate(-74.181 -13.096)" fill="#fff"/>
          <path id="Path_331" data-name="Path 331" d="M143.341,26.848a4.643,4.643,0,0,1-1.222-3.4,5.48,5.48,0,0,1,.626-2.626,4.784,4.784,0,0,1,1.717-1.849,4.506,4.506,0,0,1,2.424-.677q3.394,0,3.394,3.434a4.344,4.344,0,0,1-.141,1.131l-.242.242h-5.232a3.406,3.406,0,0,0,.7,2.253,2.37,2.37,0,0,0,1.889.778,6,6,0,0,0,2.4-.606l.141.081.323.99a9.841,9.841,0,0,1-1.727,1.03,4.105,4.105,0,0,1-1.707.465,4.476,4.476,0,0,1-3.344-1.243m4.091-5.02a.48.48,0,0,0,.313-.1.612.612,0,0,0,.071-.364q0-1.5-1.273-1.5a1.653,1.653,0,0,0-1.283.545,2.675,2.675,0,0,0-.6,1.576Z" transform="translate(-99.896 -12.857)" fill="#fff"/>
          <path id="Path_332" data-name="Path 332" d="M175.347,13.94a1.479,1.479,0,0,0,.677-.293.873.873,0,0,0,.273-.485,4.692,4.692,0,0,0,.061-.879V2.909a2.349,2.349,0,0,0-.091-.778.493.493,0,0,0-.354-.3,2.985,2.985,0,0,0-.869-.03l-.081-.081.121-1.071Q177.529.323,179.165,0l.141.384a18.424,18.424,0,0,0-.455,4.121q-.172,3.455-.172,8.364a1.291,1.291,0,0,0,.141.707.527.527,0,0,0,.465.2l.667-.04.061.122-.222,1.192-.667-.02q-1.132-.041-1.616-.04a21.468,21.468,0,0,0-2.3.182Z" transform="translate(-122.982 0)" fill="#fff"/>
          <path id="Path_333" data-name="Path 333" d="M214.993,7.971a.662.662,0,0,0-.586-.212l-.606.02-.1-.162.141-1.192,2.707.04q.545,0,1.5-.061l1.253-.081-.1,1.333a2.233,2.233,0,0,0-1.01.374,1.077,1.077,0,0,0-.283.8l-.2,7.94a2.287,2.287,0,0,0,.152,1.111.682.682,0,0,0,.636.283q.3,0,.515-.02a1.547,1.547,0,0,0,.273-.041l.1.122-.182,1.273q-.324,0-1.2-.031t-1.687-.03q-.909,0-1.707.02t-1.081.04l.182-1.273a3.015,3.015,0,0,0,.909-.233.8.8,0,0,0,.414-.464,2.827,2.827,0,0,0,.111-.9V8.809a1.675,1.675,0,0,0-.141-.838m6.182,1.384a1.638,1.638,0,0,0,.546-1.01.477.477,0,0,0-.263-.434,1.859,1.859,0,0,0-.828-.172l-.061-.141.162-1.232q.283.02,1.131.061t1.374.04q.687,0,1.384-.03t.96-.051l.121.222-.162,1.131a4.066,4.066,0,0,0-1.162.727A14.984,14.984,0,0,0,222.932,10l-2.182,2.424,2.727,4.081a5.912,5.912,0,0,0,1.141,1.334,1.959,1.959,0,0,0,1.182.424l.121.182-.162,1.051q-.3.04-1.2.141t-1.121.1a1.877,1.877,0,0,1-1.152-.414,4.8,4.8,0,0,1-1.091-1.283l-3.091-4.99.061-.424Z" transform="translate(-150.082 -4.445)" fill="#fff"/>
          <path id="Path_334" data-name="Path 334" d="M259.485,26.848a4.644,4.644,0,0,1-1.222-3.4,5.48,5.48,0,0,1,.626-2.626,4.785,4.785,0,0,1,1.717-1.849,4.506,4.506,0,0,1,2.424-.677q3.394,0,3.394,3.434a4.342,4.342,0,0,1-.141,1.131l-.242.242h-5.232a3.4,3.4,0,0,0,.7,2.253,2.37,2.37,0,0,0,1.889.778,6,6,0,0,0,2.4-.606l.142.081.323.99a9.839,9.839,0,0,1-1.727,1.03,4.1,4.1,0,0,1-1.707.465,4.476,4.476,0,0,1-3.344-1.243m4.091-5.02a.481.481,0,0,0,.313-.1.615.615,0,0,0,.071-.364q0-1.5-1.273-1.5a1.654,1.654,0,0,0-1.283.545,2.673,2.673,0,0,0-.6,1.576Z" transform="translate(-181.533 -12.857)" fill="#fff"/>
          <path id="Path_335" data-name="Path 335" d="M294.164,26.848a4.643,4.643,0,0,1-1.222-3.4,5.48,5.48,0,0,1,.626-2.626,4.783,4.783,0,0,1,1.717-1.849,4.505,4.505,0,0,1,2.424-.677q3.394,0,3.394,3.434a4.329,4.329,0,0,1-.142,1.131l-.242.242h-5.233a3.408,3.408,0,0,0,.7,2.253,2.371,2.371,0,0,0,1.889.778,6,6,0,0,0,2.4-.606l.142.081.323.99a9.844,9.844,0,0,1-1.728,1.03,4.105,4.105,0,0,1-1.707.465,4.476,4.476,0,0,1-3.344-1.243m4.091-5.02a.48.48,0,0,0,.313-.1.612.612,0,0,0,.071-.364q0-1.5-1.273-1.5a1.654,1.654,0,0,0-1.283.545,2.673,2.673,0,0,0-.6,1.576Z" transform="translate(-205.909 -12.857)" fill="#fff"/>
          <path id="Path_336" data-name="Path 336" d="M327.721,31.335a.959.959,0,0,0,.737-.283,2.006,2.006,0,0,0,.192-.99q.1-1.92.1-3.091V21.254a1.564,1.564,0,0,0-.212-.95.958.958,0,0,0-.778-.263H327.5l-.081-.1.1-1.051q1.131-.161,2.242-.384t1.434-.283l.182.2c-.013.081-.047.253-.1.515s-.094.515-.121.758l.081.1q1.656-1.475,2.04-1.475a4,4,0,0,1,2.1.545,3.63,3.63,0,0,1,1.4,1.555,5.221,5.221,0,0,1,.495,2.324,5.405,5.405,0,0,1-.687,2.748,4.771,4.771,0,0,1-1.9,1.848,5.717,5.717,0,0,1-2.768.657q-.263,0-.525-.02a3.624,3.624,0,0,1-.364-.041l.02,1.879a3.059,3.059,0,0,0,.132,1.111q.131.283.6.283c.188,0,.354-.007.495-.02s.252-.02.333-.02l.04.081-.222,1.232q-.444,0-.788-.02L330,32.446q-.707,0-1.464.051t-.98.071Zm6.445-5.717a3.512,3.512,0,0,0,.546-2.1,4.366,4.366,0,0,0-.556-2.354,1.675,1.675,0,0,0-1.465-.879,1.821,1.821,0,0,0-.687.172,3.444,3.444,0,0,0-.768.454q-.122,2.364-.122,5.152a5.564,5.564,0,0,0,.687.2,3.562,3.562,0,0,0,.828.1,1.79,1.79,0,0,0,1.535-.747" transform="translate(-230.142 -12.809)" fill="#fff"/>
        </g>
      </g>
    </g>
  </g>
</svg>
